<svg width="19" height="19" viewBox="0 0 19 19" fill="none" xmlns="http://www.w3.org/2000/svg">
<g clip-path="url(#clip0_2125_329)">
<path fill-rule="evenodd" clip-rule="evenodd" d="M18.9249 17.5473C18.9249 18.3071 18.307 18.9249 17.5472 18.9249H1.37761C0.617821 18.9249 0 18.3071 0 17.5473V1.37767C0 0.617882 0.617821 6.10352e-05 1.37761 6.10352e-05H17.5472C18.307 6.10352e-05 18.9249 0.617882 18.9249 1.37767V17.5473ZM0.573632 17.5473H0.573847C0.573847 17.9909 0.934843 18.3513 1.37761 18.3513H17.5472C17.99 18.3513 18.3512 17.9909 18.3512 17.5473V1.37767C18.3512 0.93405 17.99 0.573691 17.5472 0.573691H1.37761C0.934843 0.573691 0.573847 0.93405 0.573847 1.37767H0.573632V17.5473Z" fill="#676767"/>
<path d="M5.48746 16.2753H13.4367V15.1397H11.7333C10.5977 15.1397 10.5977 14.0041 10.5977 14.0041V4.35137H14.0045C15.1402 4.35137 15.1402 6.62259 15.1402 6.62259H16.2758V3.02781C16.2758 2.92675 16.236 2.83022 16.1645 2.75925C16.0935 2.6877 15.997 2.64795 15.8959 2.64795H3.0283C2.92723 2.64795 2.8307 2.6877 2.75973 2.75925C2.68818 2.83022 2.64844 2.92675 2.64844 3.02781V6.62259H3.78405C3.78405 6.62259 3.78405 4.35137 4.91966 4.35137H8.32649V14.0041C8.32649 14.0041 8.32649 15.1397 7.19088 15.1397H5.48746V16.2753Z" fill="#676767"/>
</g>
<defs>
<clipPath id="clip0_2125_329">
<rect width="19" height="19" fill="white"/>
</clipPath>
</defs>
</svg>
